<svg id="epoywuW08i61" xmlns="http://www.w3.org/2000/svg" xmlns:xlink="http://www.w3.org/1999/xlink" viewBox="0 0 300 300" shape-rendering="geometricPrecision" text-rendering="geometricPrecision"><line x1="-20.20089" y1="0" x2="20.200889" y2="0" transform="translate(149.87182 4.370455)" fill="none" stroke="#000" stroke-width="10"/><line x1="-20.20089" y1="0" x2="20.200889" y2="0" transform="translate(149.87182 295.265341)" fill="none" stroke="#000" stroke-width="10"/><line x1="0" y1="-19.90841" x2="0" y2="19.908411" transform="translate(129.67093 19.908411)" fill="none" stroke="#000" stroke-width="10"/><line x1="0" y1="-19.90841" x2="0" y2="19.908411" transform="translate(170.072709 19.90841)" fill="none" stroke="#000" stroke-width="10"/><line x1="0" y1="-19.90841" x2="0" y2="19.908411" transform="translate(188.992804 59.725231)" fill="none" stroke="#000" stroke-width="10"/><line x1="0" y1="-19.90841" x2="0" y2="19.908411" transform="translate(210.29475 99.542052)" fill="none" stroke="#000" stroke-width="10"/><line x1="0" y1="-19.90841" x2="0" y2="19.908411" transform="translate(230.248469 140.528788)" fill="none" stroke="#000" stroke-width="10"/><line x1="0" y1="-19.90841" x2="0" y2="19.908411" transform="translate(70.079411 139.358873)" fill="none" stroke="#000" stroke-width="10"/><line x1="9.368528" y1="0" x2="-9.368528" y2="0" transform="translate(120.302402 39.816822)" fill="none" stroke="#000" stroke-width="10"/><line x1="9.368528" y1="0" x2="-9.368528" y2="0" transform="translate(179.441237 39.816822)" fill="none" stroke="#000" stroke-width="10"/><line x1="9.368528" y1="0" x2="-9.368528" y2="0" transform="translate(200.926222 79.633642)" fill="none" stroke="#000" stroke-width="10"/><line x1="9.368528" y1="0" x2="-9.368528" y2="0" transform="translate(219.663278 119.450463)" fill="none" stroke="#000" stroke-width="10"/><line x1="9.368528" y1="0" x2="-9.368528" y2="0" transform="translate(80.154639 120.620378)" fill="none" stroke="#000" stroke-width="10"/><line x1="9.368528" y1="0" x2="-9.368528" y2="0" transform="translate(101.565346 80.2186)" fill="none" stroke="#000" stroke-width="10"/><line x1="0" y1="-20.200889" x2="0" y2="20.200889" transform="translate(110.933874 60.017711)" fill="none" stroke="#000" stroke-width="10"/><line x1="0" y1="-20.200889" x2="0" y2="20.200889" transform="translate(89.523167 100.419489)" fill="none" stroke="#000" stroke-width="10"/><line x1="-29.79576" y1="-0.584958" x2="29.79576" y2="0.584958" transform="translate(99.875171 159.852242)" fill="none" stroke="#000" stroke-width="10"/><line x1="29.479548" y1="-0.292479" x2="-29.479548" y2="0.292478" transform="translate(199.552258 160.144721)" fill="none" stroke="#000" stroke-width="10"/><line x1="0" y1="69.7814" x2="0" y2="-69.7814" transform="translate(129.67093 230.2186)" fill="none" stroke="#000" stroke-width="10"/><line x1="0" y1="69.7814" x2="0" y2="-69.7814" transform="translate(170.072709 230.2186)" fill="none" stroke="#000" stroke-width="10"/></svg>
