<svg id="e8IOs2CqrJg1" xmlns="http://www.w3.org/2000/svg" xmlns:xlink="http://www.w3.org/1999/xlink" viewBox="0 0 300 300" shape-rendering="geometricPrecision" text-rendering="geometricPrecision"><line x1="0" y1="150" x2="0" y2="-150" transform="translate(150 150)" fill="#fff" stroke="#000" stroke-width="40"/><rect width="43.584806" height="43.584806" rx="0" ry="0" transform="translate(106.415194 40.434098)" stroke-width="0"/><rect width="43.584806" height="43.584806" rx="0" ry="0" transform="translate(150 40.434098)" stroke-width="0"/><rect width="43.584806" height="43.584806" rx="0" ry="0" transform="translate(86.198145 84.018904)" stroke-width="0"/><rect width="43.584806" height="43.584806" rx="0" ry="0" transform="translate(170.21705 84.018904)" stroke-width="0"/><rect width="43.584806" height="43.584806" rx="0" ry="0" transform="translate(192.009453 127.60371)" stroke-width="0"/><rect width="43.584806" height="43.584806" rx="0" ry="0" transform="translate(62.830388 127.60371)" stroke-width="0"/><rect width="43.584806" height="43.584806" rx="0" ry="0" transform="translate(106.415194 127.60371)" stroke-width="0"/><rect width="43.584806" height="43.584806" rx="0" ry="0" transform="translate(150 127.60371)" stroke-width="0"/><rect width="43.584806" height="43.584806" rx="0" ry="0" transform="translate(150 40.434098)" stroke-width="0"/></svg>
