<svg xmlns="http://www.w3.org/2000/svg" width="194" height="184" viewBox="0 0 194 184" version="1.1"><path d="M -0 92.005 L -0 184.010 97.250 183.755 L 194.500 183.500 194.755 91.750 L 195.010 0 97.505 0 L 0 0 -0 92.005 M 0.479 92.500 C 0.479 143.100, 0.601 163.947, 0.750 138.826 C 0.898 113.705, 0.898 72.305, 0.750 46.826 C 0.601 21.347, 0.479 41.900, 0.479 92.500 M 6 92 L 6 177 97 177 L 188 177 188 92 L 188 7 97 7 L 6 7 6 92 M 76 25.109 C 55.632 27.416, 40.726 32.422, 33.441 39.402 C 26.733 45.829, 26.378 50.944, 32.178 57.550 C 40.203 66.690, 60.242 72.373, 89 73.665 C 133.123 75.647, 169.655 62.699, 165.594 46.518 C 163.762 39.220, 151.001 31.425, 135.347 28.041 C 117.512 24.187, 94.279 23.039, 76 25.109 M 80.675 38.130 C 71.863 39.263, 63.228 42.763, 60.646 46.250 L 58.609 49 60.646 51.750 C 66.245 59.310, 91.061 63.004, 113.555 59.626 C 124.212 58.025, 131.155 55.219, 133.568 51.536 C 135.233 48.995, 135.222 48.774, 133.311 46.193 C 127.930 38.926, 103.544 35.191, 80.675 38.130 M 126.618 83.667 L 93.737 93.214 63.585 84.107 C 47.002 79.098, 32.886 75, 32.217 75 C 31.378 75, 31 77.159, 31 81.953 L 31 88.906 37.750 90.948 C 41.463 92.071, 52.526 95.355, 62.335 98.245 L 80.170 103.500 55.585 103.767 L 31 104.035 31 110.517 L 31 117 97 117 L 163 117 163 110.500 L 163 104 136.250 103.931 L 109.500 103.862 117.500 101.515 C 121.900 100.225, 133.938 96.824, 144.250 93.959 L 163 88.750 163 81.375 C 163 74.995, 162.764 74.008, 161.250 74.060 C 160.287 74.092, 144.703 78.415, 126.618 83.667 M 31 142 L 31 160 46.500 160 L 62 160 62 154 L 62 148 112.500 148 L 163 148 163 142 L 163 136 112.500 136 L 62 136 62 130 L 62 124 46.500 124 L 31 124 31 142" stroke="none" fill="#0e100e" fill-rule="evenodd"/><path d="M 6 92 L 6 177 97 177 L 188 177 188 92 L 188 7 97 7 L 6 7 6 92 M 76 25.109 C 55.632 27.416, 40.726 32.422, 33.441 39.402 C 26.733 45.829, 26.378 50.944, 32.178 57.550 C 40.203 66.690, 60.242 72.373, 89 73.665 C 133.123 75.647, 169.655 62.699, 165.594 46.518 C 163.762 39.220, 151.001 31.425, 135.347 28.041 C 117.512 24.187, 94.279 23.039, 76 25.109 M 80.675 38.130 C 71.863 39.263, 63.228 42.763, 60.646 46.250 L 58.609 49 60.646 51.750 C 66.245 59.310, 91.061 63.004, 113.555 59.626 C 124.212 58.025, 131.155 55.219, 133.568 51.536 C 135.233 48.995, 135.222 48.774, 133.311 46.193 C 127.930 38.926, 103.544 35.191, 80.675 38.130 M 126.618 83.667 L 93.737 93.214 63.585 84.107 C 47.002 79.098, 32.886 75, 32.217 75 C 31.378 75, 31 77.159, 31 81.953 L 31 88.906 37.750 90.948 C 41.463 92.071, 52.526 95.355, 62.335 98.245 L 80.170 103.500 55.585 103.767 L 31 104.035 31 110.517 L 31 117 97 117 L 163 117 163 110.500 L 163 104 136.250 103.931 L 109.500 103.862 117.500 101.515 C 121.900 100.225, 133.938 96.824, 144.250 93.959 L 163 88.750 163 81.375 C 163 74.995, 162.764 74.008, 161.250 74.060 C 160.287 74.092, 144.703 78.415, 126.618 83.667 M 31 142 L 31 160 46.500 160 L 62 160 62 154 L 62 148 112.500 148 L 163 148 163 142 L 163 136 112.500 136 L 62 136 62 130 L 62 124 46.500 124 L 31 124 31 142" stroke="none" fill="#44f934" fill-rule="evenodd"/></svg>